<?xml version="1.0" encoding="UTF-8" standalone="no"?>
<!-- Created with Inkscape (http://www.inkscape.org/) -->

<svg
   xmlns:dc="http://purl.org/dc/elements/1.1/"
   xmlns:cc="http://creativecommons.org/ns#"
   xmlns:rdf="http://www.w3.org/1999/02/22-rdf-syntax-ns#"
   xmlns:svg="http://www.w3.org/2000/svg"
   xmlns="http://www.w3.org/2000/svg"
   xmlns:sodipodi="http://sodipodi.sourceforge.net/DTD/sodipodi-0.dtd"
   xmlns:inkscape="http://www.inkscape.org/namespaces/inkscape"
   id="svg6135"
   version="1.1"
   inkscape:version="0.91 r13725"
   xml:space="preserve"
   width="1600"
   height="1200"
   viewBox="0 0 1600 1200"
   sodipodi:docname="iceberg-ancud-wallpaper-4x3.svg"
   inkscape:export-filename="/home/dennis/Downloads/iceberg-ancud-wallpaper-small.png"
   inkscape:export-xdpi="90"
   inkscape:export-ydpi="90"><metadata
     id="metadata6141"><rdf:RDF><cc:Work
         rdf:about=""><dc:format>image/svg+xml</dc:format><dc:type
           rdf:resource="http://purl.org/dc/dcmitype/StillImage" /><dc:title></dc:title></cc:Work></rdf:RDF></metadata><defs
     id="defs6139"><clipPath
       clipPathUnits="userSpaceOnUse"
       id="clipPath6149"><path
         d="m 2.982,1069.03 1880.008,0 0,679.72 -1880.008,0 0,-679.72 z"
         id="path6151"
         inkscape:connector-curvature="0" /></clipPath><radialGradient
       fx="0"
       fy="0"
       cx="0"
       cy="0"
       r="1"
       gradientUnits="userSpaceOnUse"
       gradientTransform="matrix(2100.3364,0,0,-1521.795,1639.8567,1408.8904)"
       spreadMethod="pad"
       id="radialGradient6157"><stop
         style="stop-opacity:1;stop-color:#42b3b0"
         offset="0"
         id="stop6159" /><stop
         style="stop-opacity:1;stop-color:#42b3b0"
         offset="0.0134003"
         id="stop6161" /><stop
         style="stop-opacity:1;stop-color:#b4dbe4"
         offset="1"
         id="stop6163" /></radialGradient><clipPath
       clipPathUnits="userSpaceOnUse"
       id="clipPath6171"><path
         d="m 0,1748.751 1882.99,0 L 1882.99,0 0,0 0,1748.751 Z"
         id="path6173"
         inkscape:connector-curvature="0" /></clipPath><clipPath
       clipPathUnits="userSpaceOnUse"
       id="clipPath6183"><path
         d="m 0,0 1882.99,0 0,1086.991 L 0,1086.991 0,0 Z"
         id="path6185"
         inkscape:connector-curvature="0" /></clipPath><radialGradient
       fx="0"
       fy="0"
       cx="0"
       cy="0"
       r="1"
       gradientUnits="userSpaceOnUse"
       gradientTransform="matrix(1248.285,0,0,-1013.9025,941.49506,543.49579)"
       spreadMethod="pad"
       id="radialGradient6191"><stop
         style="stop-opacity:1;stop-color:#1594a2"
         offset="0"
         id="stop6193" /><stop
         style="stop-opacity:1;stop-color:#2d336e"
         offset="1"
         id="stop6195" /></radialGradient><clipPath
       clipPathUnits="userSpaceOnUse"
       id="clipPath6203"><path
         d="m 0,1748.751 1882.99,0 L 1882.99,0 0,0 0,1748.751 Z"
         id="path6205"
         inkscape:connector-curvature="0" /></clipPath><clipPath
       clipPathUnits="userSpaceOnUse"
       id="clipPath6231"><path
         d="m 207.795,789.224 61.989,0 0,-61.989 -61.989,0 0,61.989 z"
         id="path6233"
         inkscape:connector-curvature="0" /></clipPath><clipPath
       clipPathUnits="userSpaceOnUse"
       id="clipPath6247"><path
         d="m 306.141,875.333 53.445,0 0,-53.445 -53.445,0 0,53.445 z"
         id="path6249"
         inkscape:connector-curvature="0" /></clipPath><clipPath
       clipPathUnits="userSpaceOnUse"
       id="clipPath6263"><path
         d="m 154.35,176.109 53.445,0 0,-53.445 -53.445,0 0,53.445 z"
         id="path6265"
         inkscape:connector-curvature="0" /></clipPath><clipPath
       clipPathUnits="userSpaceOnUse"
       id="clipPath6279"><path
         d="m 569.89,247 53.445,0 0,-53.445 -53.445,0 0,53.445 z"
         id="path6281"
         inkscape:connector-curvature="0" /></clipPath><clipPath
       clipPathUnits="userSpaceOnUse"
       id="clipPath6295"><path
         d="m 212.067,382.23 53.445,0 0,-53.445 -53.445,0 0,53.445 z"
         id="path6297"
         inkscape:connector-curvature="0" /></clipPath><clipPath
       clipPathUnits="userSpaceOnUse"
       id="clipPath6311"><path
         d="m 377.908,765.016 34.966,0 0,-34.967 -34.966,0 0,34.967 z"
         id="path6313"
         inkscape:connector-curvature="0" /></clipPath><clipPath
       clipPathUnits="userSpaceOnUse"
       id="clipPath6327"><path
         d="m 136.867,964.219 34.966,0 0,-34.966 -34.966,0 0,34.966 z"
         id="path6329"
         inkscape:connector-curvature="0" /></clipPath><clipPath
       clipPathUnits="userSpaceOnUse"
       id="clipPath6343"><path
         d="m 146.106,299.078 34.966,0 0,-34.966 -34.966,0 0,34.966 z"
         id="path6345"
         inkscape:connector-curvature="0" /></clipPath><clipPath
       clipPathUnits="userSpaceOnUse"
       id="clipPath6359"><path
         d="m 488.256,299.078 34.966,0 0,-34.966 -34.966,0 0,34.966 z"
         id="path6361"
         inkscape:connector-curvature="0" /></clipPath><clipPath
       clipPathUnits="userSpaceOnUse"
       id="clipPath6375"><path
         d="m 303.39,782.499 34.966,0 0,-34.967 -34.966,0 0,34.967 z"
         id="path6377"
         inkscape:connector-curvature="0" /></clipPath><clipPath
       clipPathUnits="userSpaceOnUse"
       id="clipPath6391"><path
         d="m 444.473,134 34.966,0 0,-34.9661 -34.966,0 0,34.9661 z"
         id="path6393"
         inkscape:connector-curvature="0" /></clipPath><clipPath
       clipPathUnits="userSpaceOnUse"
       id="clipPath6407"><path
         d="m 595.377,82.1407 34.966,0 0,-34.966 -34.966,0 0,34.966 z"
         id="path6409"
         inkscape:connector-curvature="0" /></clipPath><clipPath
       clipPathUnits="userSpaceOnUse"
       id="clipPath6423"><path
         d="m 276.312,653.894 19.61,0 0,-19.61 -19.61,0 0,19.61 z"
         id="path6425"
         inkscape:connector-curvature="0" /></clipPath><clipPath
       clipPathUnits="userSpaceOnUse"
       id="clipPath6439"><path
         d="m 332.863,697.725 19.61,0 0,-19.61 -19.61,0 0,19.61 z"
         id="path6441"
         inkscape:connector-curvature="0" /></clipPath><clipPath
       clipPathUnits="userSpaceOnUse"
       id="clipPath6455"><path
         d="m 259.979,273.917 19.61,0 0,-19.61 -19.61,0 0,19.61 z"
         id="path6457"
         inkscape:connector-curvature="0" /></clipPath><clipPath
       clipPathUnits="userSpaceOnUse"
       id="clipPath6471"><path
         d="m 479.439,784.625 19.61,0 0,-19.609 -19.61,0 0,19.609 z"
         id="path6473"
         inkscape:connector-curvature="0" /></clipPath><clipPath
       clipPathUnits="userSpaceOnUse"
       id="clipPath6487"><path
         d="m 212.067,865.655 19.61,0 0,-19.61 -19.61,0 0,19.61 z"
         id="path6489"
         inkscape:connector-curvature="0" /></clipPath><clipPath
       clipPathUnits="userSpaceOnUse"
       id="clipPath6503"><path
         d="m 106.097,608.37 19.61,0 0,-19.61 -19.61,0 0,19.61 z"
         id="path6505"
         inkscape:connector-curvature="0" /></clipPath><clipPath
       clipPathUnits="userSpaceOnUse"
       id="clipPath6519"><path
         d="m 359.586,449.758 19.61,0 0,-19.61 -19.61,0 0,19.61 z"
         id="path6521"
         inkscape:connector-curvature="0" /></clipPath><clipPath
       clipPathUnits="userSpaceOnUse"
       id="clipPath6535"><path
         d="m 486.129,663.699 19.61,0 0,-19.61 -19.61,0 0,19.61 z"
         id="path6537"
         inkscape:connector-curvature="0" /></clipPath><clipPath
       clipPathUnits="userSpaceOnUse"
       id="clipPath6551"><path
         d="m 385.586,635.285 19.61,0 0,-19.61 -19.61,0 0,19.61 z"
         id="path6553"
         inkscape:connector-curvature="0" /></clipPath><clipPath
       clipPathUnits="userSpaceOnUse"
       id="clipPath6567"><path
         d="m 489.244,449.758 19.61,0 0,-19.61 -19.61,0 0,19.61 z"
         id="path6569"
         inkscape:connector-curvature="0" /></clipPath><clipPath
       clipPathUnits="userSpaceOnUse"
       id="clipPath6583"><path
         d="m 424.863,355.507 19.61,0 0,-19.61 -19.61,0 0,19.61 z"
         id="path6585"
         inkscape:connector-curvature="0" /></clipPath><clipPath
       clipPathUnits="userSpaceOnUse"
       id="clipPath6599"><path
         d="m 550.28,407.41 19.61,0 0,-19.61 -19.61,0 0,19.61 z"
         id="path6601"
         inkscape:connector-curvature="0" /></clipPath><clipPath
       clipPathUnits="userSpaceOnUse"
       id="clipPath6615"><path
         d="m 647.3,417.215 19.61,0 0,-19.61 -19.61,0 0,19.61 z"
         id="path6617"
         inkscape:connector-curvature="0" /></clipPath><clipPath
       clipPathUnits="userSpaceOnUse"
       id="clipPath6631"><path
         d="m 786.39,143.805 19.61,0 0,-19.61 -19.61,0 0,19.61 z"
         id="path6633"
         inkscape:connector-curvature="0" /></clipPath><clipPath
       clipPathUnits="userSpaceOnUse"
       id="clipPath6647"><path
         d="m 603.055,598.565 19.61,0 0,-19.61 -19.61,0 0,19.61 z"
         id="path6649"
         inkscape:connector-curvature="0" /></clipPath><clipPath
       clipPathUnits="userSpaceOnUse"
       id="clipPath6663"><path
         d="m 202.262,518.555 19.61,0 0,-19.61 -19.61,0 0,19.61 z"
         id="path6665"
         inkscape:connector-curvature="0" /></clipPath><clipPath
       clipPathUnits="userSpaceOnUse"
       id="clipPath6679"><path
         d="m 359.586,203.36 19.61,0 0,-19.61 -19.61,0 0,19.61 z"
         id="path6681"
         inkscape:connector-curvature="0" /></clipPath><clipPath
       clipPathUnits="userSpaceOnUse"
       id="clipPath6695"><path
         d="m 1623.27,789.224 61.99,0 0,-61.989 -61.99,0 0,61.989 z"
         id="path6697"
         inkscape:connector-curvature="0" /></clipPath><clipPath
       clipPathUnits="userSpaceOnUse"
       id="clipPath6711"><path
         d="m 1533.47,875.333 53.44,0 0,-53.445 -53.44,0 0,53.445 z"
         id="path6713"
         inkscape:connector-curvature="0" /></clipPath><clipPath
       clipPathUnits="userSpaceOnUse"
       id="clipPath6727"><path
         d="m 1685.26,176.109 53.44,0 0,-53.445 -53.44,0 0,53.445 z"
         id="path6729"
         inkscape:connector-curvature="0" /></clipPath><clipPath
       clipPathUnits="userSpaceOnUse"
       id="clipPath6743"><path
         d="m 1269.72,247 53.44,0 0,-53.445 -53.44,0 0,53.445 z"
         id="path6745"
         inkscape:connector-curvature="0" /></clipPath><clipPath
       clipPathUnits="userSpaceOnUse"
       id="clipPath6759"><path
         d="m 1627.54,382.23 53.45,0 0,-53.445 -53.45,0 0,53.445 z"
         id="path6761"
         inkscape:connector-curvature="0" /></clipPath><clipPath
       clipPathUnits="userSpaceOnUse"
       id="clipPath6775"><path
         d="m 1480.18,765.016 34.97,0 0,-34.967 -34.97,0 0,34.967 z"
         id="path6777"
         inkscape:connector-curvature="0" /></clipPath><clipPath
       clipPathUnits="userSpaceOnUse"
       id="clipPath6791"><path
         d="m 1721.22,964.219 34.97,0 0,-34.966 -34.97,0 0,34.966 z"
         id="path6793"
         inkscape:connector-curvature="0" /></clipPath><clipPath
       clipPathUnits="userSpaceOnUse"
       id="clipPath6807"><path
         d="m 1711.98,299.078 34.97,0 0,-34.966 -34.97,0 0,34.966 z"
         id="path6809"
         inkscape:connector-curvature="0" /></clipPath><clipPath
       clipPathUnits="userSpaceOnUse"
       id="clipPath6823"><path
         d="m 1369.83,299.078 34.97,0 0,-34.966 -34.97,0 0,34.966 z"
         id="path6825"
         inkscape:connector-curvature="0" /></clipPath><clipPath
       clipPathUnits="userSpaceOnUse"
       id="clipPath6839"><path
         d="m 1554.7,782.499 34.96,0 0,-34.967 -34.96,0 0,34.967 z"
         id="path6841"
         inkscape:connector-curvature="0" /></clipPath><clipPath
       clipPathUnits="userSpaceOnUse"
       id="clipPath6855"><path
         d="m 1413.62,134 34.96,0 0,-34.9661 -34.96,0 0,34.9661 z"
         id="path6857"
         inkscape:connector-curvature="0" /></clipPath><clipPath
       clipPathUnits="userSpaceOnUse"
       id="clipPath6871"><path
         d="m 1262.71,82.1407 34.97,0 0,-34.966 -34.97,0 0,34.966 z"
         id="path6873"
         inkscape:connector-curvature="0" /></clipPath><clipPath
       clipPathUnits="userSpaceOnUse"
       id="clipPath6887"><path
         d="m 1597.13,653.894 19.61,0 0,-19.61 -19.61,0 0,19.61 z"
         id="path6889"
         inkscape:connector-curvature="0" /></clipPath><clipPath
       clipPathUnits="userSpaceOnUse"
       id="clipPath6903"><path
         d="m 1540.58,697.725 19.61,0 0,-19.61 -19.61,0 0,19.61 z"
         id="path6905"
         inkscape:connector-curvature="0" /></clipPath><clipPath
       clipPathUnits="userSpaceOnUse"
       id="clipPath6919"><path
         d="m 1613.47,273.917 19.61,0 0,-19.61 -19.61,0 0,19.61 z"
         id="path6921"
         inkscape:connector-curvature="0" /></clipPath><clipPath
       clipPathUnits="userSpaceOnUse"
       id="clipPath6935"><path
         d="m 1394.01,784.625 19.61,0 0,-19.609 -19.61,0 0,19.609 z"
         id="path6937"
         inkscape:connector-curvature="0" /></clipPath><clipPath
       clipPathUnits="userSpaceOnUse"
       id="clipPath6951"><path
         d="m 1661.38,865.655 19.61,0 0,-19.61 -19.61,0 0,19.61 z"
         id="path6953"
         inkscape:connector-curvature="0" /></clipPath><clipPath
       clipPathUnits="userSpaceOnUse"
       id="clipPath6967"><path
         d="m 1767.35,608.37 19.61,0 0,-19.61 -19.61,0 0,19.61 z"
         id="path6969"
         inkscape:connector-curvature="0" /></clipPath><clipPath
       clipPathUnits="userSpaceOnUse"
       id="clipPath6983"><path
         d="m 1513.86,449.758 19.61,0 0,-19.61 -19.61,0 0,19.61 z"
         id="path6985"
         inkscape:connector-curvature="0" /></clipPath><clipPath
       clipPathUnits="userSpaceOnUse"
       id="clipPath6999"><path
         d="m 1387.32,663.699 19.61,0 0,-19.61 -19.61,0 0,19.61 z"
         id="path7001"
         inkscape:connector-curvature="0" /></clipPath><clipPath
       clipPathUnits="userSpaceOnUse"
       id="clipPath7015"><path
         d="m 1487.86,635.285 19.61,0 0,-19.61 -19.61,0 0,19.61 z"
         id="path7017"
         inkscape:connector-curvature="0" /></clipPath><clipPath
       clipPathUnits="userSpaceOnUse"
       id="clipPath7031"><path
         d="m 1384.2,449.758 19.61,0 0,-19.61 -19.61,0 0,19.61 z"
         id="path7033"
         inkscape:connector-curvature="0" /></clipPath><clipPath
       clipPathUnits="userSpaceOnUse"
       id="clipPath7047"><path
         d="m 1448.58,355.507 19.61,0 0,-19.61 -19.61,0 0,19.61 z"
         id="path7049"
         inkscape:connector-curvature="0" /></clipPath><clipPath
       clipPathUnits="userSpaceOnUse"
       id="clipPath7063"><path
         d="m 1323.16,407.41 19.61,0 0,-19.61 -19.61,0 0,19.61 z"
         id="path7065"
         inkscape:connector-curvature="0" /></clipPath><clipPath
       clipPathUnits="userSpaceOnUse"
       id="clipPath7079"><path
         d="m 1226.14,417.215 19.61,0 0,-19.61 -19.61,0 0,19.61 z"
         id="path7081"
         inkscape:connector-curvature="0" /></clipPath><clipPath
       clipPathUnits="userSpaceOnUse"
       id="clipPath7095"><path
         d="m 1087.05,143.805 19.61,0 0,-19.61 -19.61,0 0,19.61 z"
         id="path7097"
         inkscape:connector-curvature="0" /></clipPath><clipPath
       clipPathUnits="userSpaceOnUse"
       id="clipPath7111"><path
         d="m 1270.39,598.565 19.61,0 0,-19.61 -19.61,0 0,19.61 z"
         id="path7113"
         inkscape:connector-curvature="0" /></clipPath><clipPath
       clipPathUnits="userSpaceOnUse"
       id="clipPath7127"><path
         d="m 1671.18,518.555 19.61,0 0,-19.61 -19.61,0 0,19.61 z"
         id="path7129"
         inkscape:connector-curvature="0" /></clipPath><clipPath
       clipPathUnits="userSpaceOnUse"
       id="clipPath7143"><path
         d="m 1513.86,203.36 19.61,0 0,-19.61 -19.61,0 0,19.61 z"
         id="path7145"
         inkscape:connector-curvature="0" /></clipPath><clipPath
       clipPathUnits="userSpaceOnUse"
       id="clipPath7159"><path
         d="m 0,1748.751 1882.99,0 L 1882.99,0 0,0 0,1748.751 Z"
         id="path7161"
         inkscape:connector-curvature="0" /></clipPath><clipPath
       clipPathUnits="userSpaceOnUse"
       id="clipPath7319"><path
         d="m 0,1748.751 1882.99,0 L 1882.99,0 0,0 0,1748.751 Z"
         id="path7321"
         inkscape:connector-curvature="0" /></clipPath></defs><sodipodi:namedview
     pagecolor="#ffffff"
     bordercolor="#666666"
     borderopacity="1"
     objecttolerance="10"
     gridtolerance="10"
     guidetolerance="10"
     inkscape:pageopacity="0"
     inkscape:pageshadow="2"
     inkscape:window-width="1918"
     inkscape:window-height="1059"
     id="namedview6137"
     showgrid="false"
     inkscape:zoom="0.43185132"
     inkscape:cx="436.09996"
     inkscape:cy="771.79141"
     inkscape:window-x="0"
     inkscape:window-y="19"
     inkscape:window-maximized="0"
     inkscape:current-layer="g6143" /><g
     id="g6143"
     inkscape:groupmode="layer"
     inkscape:label="iceberg002"
     transform="matrix(1.25,0,0,-1.25,0,1200)"><g
       id="g6145"
       transform="matrix(0.68493197,0,0,0.59393454,-2.0707629,-77.36455)"><g
         id="g6147"
         clip-path="url(#clipPath6149)"><g
           id="g6153"><g
             id="g6155"><path
               d="m 2.982,1069.03 3273.7499,0 0,679.72 -3273.7499,0 0,-679.72 z"
               style="fill:url(#radialGradient6157);stroke:none"
               id="path6165"
               inkscape:connector-curvature="0" /></g></g></g></g><g
       id="g6167"
       transform="matrix(0.52156559,0,0,0.52156559,-452.52505,-110.11481)"><g
         id="g6169"
         clip-path="url(#clipPath6171)"><g
           id="g6175"
           transform="translate(1354.358,1578.5336)"><path
             d="m 0,0 c 7.167,-2.146 14.679,1.266 22.104,2.181 7.425,0.916 17.046,-3.096 16.48,-10.556 17.144,9.098 39.557,7.131 54.854,-4.814 23.341,12.908 56.44,2.83 68.626,-20.896 6.269,1.598 12.537,3.197 18.806,4.796 3.045,0.777 6.593,1.46 9.073,-0.47 1.739,-1.354 2.432,-3.65 2.75,-5.831 1.649,-11.29 -4.982,-23.284 -15.421,-27.892 -10.438,-4.608 -23.768,-1.426 -31,7.4 -4.127,5.036 -7.559,12.307 -14.069,12.486 -5.541,0.153 -13.055,-4.449 -15.33,0.606 -8.122,-12.066 -28.214,-13.216 -37.659,-2.155 -2.986,-4.674 -7.824,-8.705 -13.37,-8.665 -5.547,0.039 -10.908,5.806 -8.956,10.998 C 47.26,-56.903 24.437,-59.273 12.12,-47.46 0.441,-62.776 -25.677,-63.672 -38.379,-49.194 c -15.354,-11.331 -38.118,-11.324 -53.465,0.018 -18.707,-11.287 -44.638,-8.908 -60.979,5.593 -2.356,2.091 -4.723,4.505 -7.823,5.061 -2.076,0.373 -4.193,-0.154 -6.248,-0.624 -23.264,-5.318 -52.419,-0.901 -63.085,20.446 -13.104,-0.319 -25.269,11.479 -25.351,24.587 -0.082,13.107 11.934,25.057 25.04,24.902 3.222,-0.038 6.99,-4.42 3.938,-5.456 2.867,17.744 16.277,33.368 33.382,38.891 8.333,2.691 19.155,2.246 23.794,-5.182 13.901,22.569 48.781,28.386 69.254,11.55 -3.11,12.733 7.386,24.636 18.058,32.244 6.985,4.979 14.687,9.392 23.182,10.579 8.496,1.187 17.941,-1.424 23.081,-8.292 4.23,-5.652 4.968,-13.133 5.075,-20.193 0.178,-11.791 -4.205,-26.978 -15.984,-27.554 1.655,3.31 6.29,4.123 9.715,2.722 3.425,-1.4 5.909,-4.378 8.248,-7.245 7.415,-9.089 15.28,-20.785 10.783,-31.618 4.081,4.552 12.306,4.302 16.104,-0.489 C 2.137,15.955 0.502,7.89 -4.861,4.956 L 0,0 Z"
             style="fill:#8ad9f8;fill-opacity:1;fill-rule:nonzero;stroke:none"
             id="path6177"
             inkscape:connector-curvature="0" /></g></g></g><g
       id="g6179"
       transform="matrix(0.68377794,0,0,0.52156559,-0.01719507,0)"><g
         id="g6181"
         clip-path="url(#clipPath6183)"><g
           id="g6187"><g
             id="g6189"><path
               d="m 0,0 1882.99,0 0,1086.991 L 0,1086.991 0,0 Z"
               style="fill:url(#radialGradient6191);stroke:none"
               id="path6197"
               inkscape:connector-curvature="0" /></g></g></g></g><path
       inkscape:connector-curvature="0"
       id="path6209"
       style="fill:#8ad9f8;fill-opacity:1;fill-rule:nonzero;stroke:none"
       d="m 384.89607,805.99877 0,0 c 4.47712,2.10138 10.52571,-0.6989 11.82076,-5.47175 -1.96839,2.69493 -1.3931,6.65987 0.62484,9.31777 2.01793,2.65842 5.16871,4.21582 8.3414,5.24956 4.63098,1.50837 10.60603,1.67631 13.43083,-2.29072 -3.13617,4.42184 -2.57549,10.69158 0.11735,15.3961 2.69337,4.70504 7.15223,8.11817 11.70654,11.05875 1.89902,1.22568 3.89975,2.41694 6.13153,2.77473 6.08667,0.97533 11.19384,-4.30135 15.08785,-9.07993 -0.56121,5.03519 3.83298,9.78039 8.84366,10.52988 5.01068,0.75001 10.11473,-1.88859 13.30253,-5.82641 3.18833,-3.93729 4.69827,-8.99022 5.38726,-14.00977 7.48811,2.00855 16.13932,-2.39711 18.91927,-9.63488 11.28042,1.67214 23.30407,-4.14749 28.99122,-14.03168 2.94163,3.01048 8.24439,1.60799 11.30806,-1.27888 4.66593,-4.39575 6.12214,-12.34963 2.14625,-17.37856 -3.06212,-3.87315 -8.4937,-5.22035 -13.39485,-4.6216 -4.90115,0.59876 -9.42834,2.8368 -13.84653,5.04093 2.00751,-3.34636 3.65566,-8.44414 0.32755,-10.48242 -1.052,-0.64413 -2.34183,-0.73071 -3.57429,-0.78131 -3.6979,-0.15177 -7.40206,-0.13821 -11.0984,0.0402 -1.16517,0.0563 -2.46231,0.0861 -3.33854,-0.68377 -1.48072,-1.30078 -0.69159,-3.66504 -0.4282,-5.6183 0.76148,-5.64282 -4.32326,-10.73017 -9.86072,-12.05651 -5.53746,-1.32687 -11.31902,0.11422 -16.82936,1.54957 -7.37389,1.92092 -14.74779,3.84133 -22.12168,5.76226 -1.32686,0.34579 -3.09236,0.51322 -3.72555,-0.70308 -0.31502,-0.60501 -0.19558,-1.34094 -0.36613,-2.00176 -0.2973,-1.15423 -1.40771,-1.88911 -2.46753,-2.43467 -8.96571,-4.61481 -20.70876,-3.11166 -28.22244,3.6134 1.91832,-0.51165 2.25108,-3.37087 1.00297,-4.91523 -1.2481,-1.54383 -3.34845,-2.06018 -5.3038,-2.40494 -5.68506,-1.00401 -11.48644,-1.34772 -17.25026,-1.02227 -5.29545,0.29834 -11.76808,2.28237 -12.58381,7.52254 -0.0245,-0.92682 -0.0485,-1.85416 -0.0725,-2.78151 -10.39949,-2.49047 -22.14202,2.46649 -27.61116,11.65543 -10.13402,-0.59928 -20.44381,2.35904 -28.71792,8.24126 -3.18729,2.26568 -6.29165,5.37838 -6.48306,9.28439 -0.18881,3.8455 2.78985,7.43804 6.48149,8.53229 3.69112,1.09424 7.81619,-0.0496 10.85535,-2.41328 2.8128,4.89176 8.66216,7.85164 14.26951,7.22107 5.60683,-0.63057 10.65246,-4.81666 12.30791,-10.21069 -2.56976,2.62087 -0.17264,7.47247 3.33854,8.54272 3.5117,1.06973 7.24819,-0.33901 10.64672,-1.7269 -2.2297,1.75715 -2.07114,5.63447 0.1403,7.41406 2.21144,1.77906 5.78833,1.29348 7.66858,-0.83295 1.10259,-1.24654 1.65492,-2.93172 1.44317,-4.55848 -5.26312,0.46107 -0.0746,9.22441 2.65529,10.50538" /><path
       inkscape:connector-curvature="0"
       id="path6213"
       style="fill:#8ad9f8;fill-opacity:1;fill-rule:nonzero;stroke:none"
       d="m 647.11387,830.5001 0,0 c 3.724,1.74777 8.7545,-0.58102 9.8321,-4.55118 -1.6372,2.24117 -1.1584,5.53955 0.5194,7.75047 1.6784,2.21039 4.2988,3.50596 6.9379,4.36602 3.8518,1.25437 8.8218,1.39415 11.1714,-1.90528 -2.6089,3.67756 -2.1426,8.8927 0.098,12.80548 2.2397,3.91331 5.9485,6.75219 9.7366,9.19781 1.5799,1.01966 3.2437,2.01063 5.0999,2.30793 5.0628,0.81103 9.3105,-3.57742 12.5489,-7.55227 -0.4668,4.18817 3.1883,8.13486 7.3561,8.75865 4.1673,0.62327 8.4129,-1.57096 11.064,-4.84639 2.6516,-3.27491 3.9076,-7.47769 4.4808,-11.6523 6.2285,1.67058 13.424,-1.99394 15.7361,-8.01385 9.3825,1.39101 19.383,-3.44964 24.113,-11.67107 2.4472,2.50455 6.8576,1.33781 9.406,-1.06348 3.8809,-3.65617 5.0915,-10.27171 1.7848,-14.45414 -2.5468,-3.22171 -7.0646,-4.34204 -11.1412,-3.84394 -4.076,0.49757 -7.8417,2.35904 -11.5167,4.19234 1.6701,-2.78359 3.0407,-7.02288 0.2728,-8.71849 -0.8752,-0.53617 -1.9481,-0.60762 -2.9735,-0.64987 -3.0751,-0.12622 -6.1565,-0.11527 -9.2306,0.0334 -0.9691,0.0469 -2.0482,0.0715 -2.7768,-0.56851 -1.2315,-1.08224 -0.5753,-3.04855 -0.3563,-4.67322 0.6337,-4.69305 -3.5956,-8.92503 -8.2016,-10.02815 -4.6054,-1.10363 -9.4148,0.0955 -13.9978,1.28931 -6.1331,1.59756 -12.2661,3.19512 -18.3992,4.79215 -1.1037,0.2879 -2.5724,0.42716 -3.0992,-0.58468 -0.2618,-0.50278 -0.1627,-1.1151 -0.3041,-1.66483 -0.2477,-0.95968 -1.1709,-1.57148 -2.0523,-2.02524 -7.4574,-3.8382 -17.2242,-2.58749 -23.4741,3.00578 1.596,-0.4256 1.8724,-2.80394 0.834,-4.08803 -1.0379,-1.28462 -2.7847,-1.71387 -4.4109,-2.00073 -4.729,-0.83502 -9.5541,-1.12084 -14.3483,-0.85015 -4.4041,0.24827 -9.7877,1.8985 -10.4662,6.25722 -0.02,-0.77139 -0.04,-1.54279 -0.061,-2.31366 -8.6492,-2.07166 -18.41652,2.05132 -22.9651,9.69434 -8.42902,-0.49862 -17.00408,1.96213 -23.88614,6.85441 -2.65111,1.88442 -5.23286,4.47347 -5.39194,7.7223 -0.15699,3.19824 2.32045,6.18629 5.39038,7.09643 3.07046,0.91013 6.50132,-0.0412 9.02934,-2.00699 2.33923,4.06873 7.20491,6.53052 11.86823,6.00583 4.66384,-0.5247 8.86036,-4.00615 10.23729,-8.49265 -2.13738,2.18014 -0.14395,6.21549 2.77681,7.10528 2.92073,0.8898 6.02883,-0.28164 8.85513,-1.43639 -1.8542,1.46143 -1.7222,4.68679 0.1168,6.16647 1.8391,1.48021 4.8146,1.07599 6.3783,-0.69211 0.9169,-1.03688 1.3769,-2.43885 1.2006,-3.79179 -4.3775,0.38388 -0.062,7.67223 2.2083,8.73779" /><path
       inkscape:connector-curvature="0"
       id="path6217"
       style="fill:#8ad9f8;fill-opacity:1;fill-rule:nonzero;stroke:none"
       d="m 579.6692,669.00562 0,0 c -2.42215,1.13649 -5.69446,-0.37814 -6.39492,-2.96041 1.06504,1.45778 0.75366,3.60298 -0.33849,5.04093 -1.09164,1.43796 -2.7956,2.28081 -4.51259,2.83993 -2.50508,0.81625 -5.73774,0.907 -7.26593,-1.23924 1.69665,2.39242 1.39362,5.78416 -0.0636,8.3294 -1.45673,2.54524 -3.8695,4.3921 -6.33337,5.98288 -1.02696,0.66291 -2.10973,1.30756 -3.31716,1.50106 -3.29264,0.52783 -6.0559,-2.3267 -8.16198,-4.9121 0.30355,2.72414 -2.07374,5.29128 -4.78484,5.69654 -2.71058,0.40578 -5.47175,-1.02175 -7.19656,-3.15182 -1.72482,-2.1306 -2.54159,-4.86412 -2.91451,-7.57939 -4.051,1.08642 -8.73153,-1.29714 -10.23521,-5.21253 -6.10283,0.9044 -12.6078,-2.24377 -15.68452,-7.59139 -1.59129,1.62885 -4.4599,0.86998 -6.11744,-0.69159 -2.52438,-2.37834 -3.31194,-6.68126 -1.161,-9.40174 1.65649,-2.09565 4.59499,-2.82428 7.24663,-2.50039 2.65112,0.32389 5.10039,1.53445 7.49072,2.72675 -1.0859,-1.81036 -1.97777,-4.56788 -0.17733,-5.67047 0.56903,-0.34892 1.26688,-0.39534 1.93397,-0.42299 2.0002,-0.0819 4.00458,-0.0746 6.00426,0.0219 0.63057,0.0302 1.33208,0.0464 1.80618,-0.36979 0.80113,-0.70359 0.37396,-1.98299 0.23158,-3.03968 -0.41204,-3.05273 2.3387,-5.80503 5.33457,-6.5227 2.99587,-0.71768 6.1237,0.0621 9.10445,0.83815 3.98945,1.03948 7.97891,2.07844 11.96784,3.1174 0.7182,0.18724 1.67318,0.27747 2.01585,-0.38022 0.17056,-0.32702 0.10588,-0.7255 0.1982,-1.08277 0.16064,-0.62484 0.76148,-1.02227 1.33468,-1.31748 4.85056,-2.49673 11.20323,-1.68309 15.26832,1.95535 -1.03792,-0.27695 -1.21786,-1.82391 -0.54243,-2.65946 0.67543,-0.83503 1.8114,-1.11458 2.86913,-1.30131 3.07567,-0.54295 6.21445,-0.72862 9.33289,-0.55285 2.86444,0.16168 6.36623,1.23506 6.80748,4.06977 0.013,-0.50174 0.0261,-1.00297 0.0396,-1.50472 5.6256,-1.34772 11.9788,1.33417 14.93712,6.30573 5.48269,-0.32441 11.06032,1.27627 15.53639,4.45835 1.72482,1.22567 3.40426,2.90981 3.50753,5.02267 0.10223,2.08053 -1.50941,4.02388 -3.50649,4.61638 -1.99707,0.59198 -4.22833,-0.0271 -5.87282,-1.306 -1.52141,2.64642 -4.68627,4.24815 -7.7197,3.90653 -3.03342,-0.34111 -5.7633,-2.60575 -6.65882,-5.52391 1.39049,1.41814 0.0939,4.04266 -1.80619,4.6216 -1.89954,0.57893 -3.92113,-0.18359 -5.75965,-0.93413 1.20639,0.95082 1.12033,3.04803 -0.0756,4.01084 -1.19647,0.96281 -3.132,0.69994 -4.14906,-0.45011 -0.59615,-0.67438 -0.89552,-1.58608 -0.78078,-2.46648 2.84723,0.24983 0.0407,4.99034 -1.43639,5.6835" /><path
       inkscape:connector-curvature="0"
       id="path6225"
       style="fill:#5ecbf0;fill-opacity:1;fill-rule:nonzero;stroke:none"
       d="m 800.4102,694.55426 0,0 c -3.72398,1.74777 -8.755,-0.58102 -9.83203,-4.55118 1.63719,2.24117 1.15892,5.53955 -0.51948,7.75046 -1.6784,2.2104 -4.29874,3.50597 -6.93787,4.36603 -3.85176,1.25436 -8.82176,1.39414 -11.17141,-1.90528 2.60887,3.67756 2.14259,8.89269 -0.0975,12.80548 -2.2396,3.9133 -5.94846,6.75219 -9.73659,9.19781 -1.57982,1.01966 -3.24362,2.01063 -5.09987,2.30792 -5.06283,0.81104 -9.31046,-3.57741 -12.54887,-7.55227 0.46681,4.18818 -3.18833,8.13486 -7.35616,8.75866 -4.16731,0.62327 -8.41285,-1.57096 -11.06397,-4.84639 -2.65164,-3.27491 -3.90757,-7.47769 -4.48077,-11.6523 -6.22853,1.67058 -13.42405,-1.99394 -15.73615,-8.01385 -9.38245,1.39101 -19.38295,-3.44964 -24.11302,-11.67108 -2.44719,2.50456 -6.85755,1.33782 -9.40592,-1.06347 -3.88097,-3.65617 -5.09152,-10.27171 -1.78479,-14.45415 2.5468,-3.22171 7.0646,-4.34203 11.14116,-3.84394 4.07603,0.49758 7.84174,2.35905 11.51669,4.19235 -1.67006,-2.7836 -3.04073,-7.02288 -0.27278,-8.71849 0.87519,-0.53617 1.94805,-0.60763 2.97344,-0.64987 3.07515,-0.12622 6.15656,-0.11527 9.23067,0.0334 0.96907,0.0469 2.04819,0.0715 2.77682,-0.56851 1.23194,-1.08225 0.57528,-3.04855 0.35623,-4.67323 -0.63371,-4.69356 3.59567,-8.92503 8.20162,-10.02814 4.60542,-1.10363 9.41478,0.0955 13.99777,1.28931 6.13309,1.59704 12.26618,3.19459 18.39927,4.79215 1.10364,0.2879 2.57236,0.42716 3.09915,-0.58468 0.26182,-0.50279 0.16272,-1.11511 0.30407,-1.66484 0.24774,-0.9602 1.17091,-1.57147 2.05236,-2.02523 7.45734,-3.83821 17.22418,-2.58749 23.4741,3.00578 -1.59599,-0.4256 -1.87242,-2.80394 -0.83398,-4.08803 1.03791,-1.28462 2.78464,-1.71387 4.41088,-2.00073 4.72903,-0.83503 9.55404,-1.12084 14.34827,-0.85015 4.4041,0.24826 9.7877,1.8985 10.46625,6.25722 0.0204,-0.77139 0.0402,-1.54279 0.0605,-2.31366 8.64912,-2.07166 18.41648,2.05131 22.96505,9.69434 8.42902,-0.49862 17.00408,1.96213 23.88614,6.85441 2.65112,1.88442 5.23287,4.47347 5.39247,7.7223 0.15647,3.19876 -2.32097,6.18629 -5.3909,7.09642 -3.07046,0.91066 -6.50132,-0.0412 -9.02935,-2.00698 -2.33922,4.06821 -7.20491,6.53052 -11.86822,6.00583 -4.66384,-0.5247 -8.86036,-4.00615 -10.23729,-8.49266 2.13737,2.18015 0.14395,6.2155 -2.77682,7.10529 -2.92077,0.88979 -6.02878,-0.28216 -8.85514,-1.43639 1.85417,1.46143 1.72273,4.68679 -0.11683,6.16647 -1.83904,1.4802 -4.81457,1.07599 -6.37823,-0.69212 -0.91691,-1.03687 -1.37693,-2.43884 -1.20064,-3.79178 4.3775,0.38387 0.0621,7.67223 -2.20831,8.73779" /><g
       id="g6229"
       transform="translate(881.4929,31.360668)" /><g
       id="g6245"
       transform="translate(881.4929,31.360668)" /><g
       id="g6261"
       transform="translate(881.4929,31.360668)" /><g
       id="g6277"
       transform="translate(881.4929,31.360668)" /><g
       id="g6293"
       transform="translate(881.4929,31.360668)" /><g
       id="g6309"
       transform="translate(881.4929,31.360668)" /><g
       id="g6325"
       transform="translate(881.4929,31.360668)" /><g
       id="g6341"
       transform="translate(881.4929,31.360668)" /><g
       id="g6357"
       transform="translate(881.4929,31.360668)" /><g
       id="g6373"
       transform="translate(881.4929,31.360668)" /><g
       id="g6389"
       transform="translate(881.4929,31.360668)" /><g
       id="g6405"
       transform="translate(881.4929,31.360668)" /><g
       id="g6421"
       transform="translate(881.4929,31.360668)" /><g
       id="g6437"
       transform="translate(881.4929,31.360668)" /><g
       id="g6453"
       transform="translate(881.4929,31.360668)" /><g
       id="g6469"
       transform="translate(881.4929,31.360668)" /><g
       id="g6485"
       transform="translate(881.4929,31.360668)" /><g
       id="g6501"
       transform="translate(881.4929,31.360668)" /><g
       id="g6517"
       transform="translate(881.4929,31.360668)" /><g
       id="g6533"
       transform="translate(881.4929,31.360668)" /><g
       id="g6549"
       transform="translate(881.4929,31.360668)" /><g
       id="g6565"
       transform="translate(881.4929,31.360668)" /><g
       id="g6581"
       transform="translate(881.4929,31.360668)" /><g
       id="g6597"
       transform="translate(881.4929,31.360668)" /><g
       id="g6613"
       transform="translate(881.4929,31.360668)" /><g
       id="g6629"
       transform="translate(881.4929,31.360668)" /><g
       id="g6645"
       transform="translate(881.4929,31.360668)" /><g
       id="g6661"
       transform="translate(881.4929,31.360668)" /><g
       id="g6677"
       transform="translate(881.4929,31.360668)" /><g
       id="g6693"
       transform="translate(881.4929,31.360668)" /><g
       id="g6709"
       transform="translate(881.4929,31.360668)" /><g
       id="g6725"
       transform="translate(881.4929,31.360668)" /><g
       id="g6741"
       transform="translate(881.4929,31.360668)" /><g
       id="g6757"
       transform="translate(881.4929,31.360668)" /><g
       id="g6773"
       transform="translate(881.4929,31.360668)" /><g
       id="g6789"
       transform="translate(881.4929,31.360668)" /><g
       id="g6805"
       transform="translate(881.4929,31.360668)" /><g
       id="g6821"
       transform="translate(881.4929,31.360668)" /><g
       id="g6837"
       transform="translate(881.4929,31.360668)" /><g
       id="g6853"
       transform="translate(881.4929,31.360668)" /><g
       id="g6869"
       transform="translate(881.4929,31.360668)" /><g
       id="g6885"
       transform="translate(881.4929,31.360668)" /><g
       id="g6901"
       transform="translate(881.4929,31.360668)" /><g
       id="g6917"
       transform="translate(881.4929,31.360668)" /><g
       id="g6933"
       transform="translate(881.4929,31.360668)" /><g
       id="g6949"
       transform="translate(881.4929,31.360668)" /><g
       id="g6965"
       transform="translate(881.4929,31.360668)" /><g
       id="g6981"
       transform="translate(881.4929,31.360668)" /><g
       id="g6997"
       transform="translate(881.4929,31.360668)" /><g
       id="g7013"
       transform="translate(881.4929,31.360668)" /><g
       id="g7029"
       transform="translate(881.4929,31.360668)" /><g
       id="g7045"
       transform="translate(881.4929,31.360668)" /><g
       id="g7061"
       transform="translate(881.4929,31.360668)" /><g
       id="g7077"
       transform="translate(881.4929,31.360668)" /><g
       id="g7093"
       transform="translate(881.4929,31.360668)" /><g
       id="g7109"
       transform="translate(881.4929,31.360668)" /><g
       id="g7125"
       transform="translate(881.4929,31.360668)" /><g
       id="g7141"
       transform="translate(881.4929,31.360668)" /><g
       transform="matrix(0.32339997,0,0,0.32339997,490.27841,285.30185)"
       id="g10021"><g
         clip-path="url(#clipPath6171)"
         id="g10023"><g
           transform="translate(1354.358,1578.5336)"
           id="g10025"><path
             inkscape:connector-curvature="0"
             id="path10027"
             style="fill:#8ad9f8;fill-opacity:1;fill-rule:nonzero;stroke:none"
             d="m 0,0 c 7.167,-2.146 14.679,1.266 22.104,2.181 7.425,0.916 17.046,-3.096 16.48,-10.556 17.144,9.098 39.557,7.131 54.854,-4.814 23.341,12.908 56.44,2.83 68.626,-20.896 6.269,1.598 12.537,3.197 18.806,4.796 3.045,0.777 6.593,1.46 9.073,-0.47 1.739,-1.354 2.432,-3.65 2.75,-5.831 1.649,-11.29 -4.982,-23.284 -15.421,-27.892 -10.438,-4.608 -23.768,-1.426 -31,7.4 -4.127,5.036 -7.559,12.307 -14.069,12.486 -5.541,0.153 -13.055,-4.449 -15.33,0.606 -8.122,-12.066 -28.214,-13.216 -37.659,-2.155 -2.986,-4.674 -7.824,-8.705 -13.37,-8.665 -5.547,0.039 -10.908,5.806 -8.956,10.998 C 47.26,-56.903 24.437,-59.273 12.12,-47.46 0.441,-62.776 -25.677,-63.672 -38.379,-49.194 c -15.354,-11.331 -38.118,-11.324 -53.465,0.018 -18.707,-11.287 -44.638,-8.908 -60.979,5.593 -2.356,2.091 -4.723,4.505 -7.823,5.061 -2.076,0.373 -4.193,-0.154 -6.248,-0.624 -23.264,-5.318 -52.419,-0.901 -63.085,20.446 -13.104,-0.319 -25.269,11.479 -25.351,24.587 -0.082,13.107 11.934,25.057 25.04,24.902 3.222,-0.038 6.99,-4.42 3.938,-5.456 2.867,17.744 16.277,33.368 33.382,38.891 8.333,2.691 19.155,2.246 23.794,-5.182 13.901,22.569 48.781,28.386 69.254,11.55 -3.11,12.733 7.386,24.636 18.058,32.244 6.985,4.979 14.687,9.392 23.182,10.579 8.496,1.187 17.941,-1.424 23.081,-8.292 4.23,-5.652 4.968,-13.133 5.075,-20.193 0.178,-11.791 -4.205,-26.978 -15.984,-27.554 1.655,3.31 6.29,4.123 9.715,2.722 3.425,-1.4 5.909,-4.378 8.248,-7.245 7.415,-9.089 15.28,-20.785 10.783,-31.618 4.081,4.552 12.306,4.302 16.104,-0.489 C 2.137,15.955 0.502,7.89 -4.861,4.956 L 0,0 Z" /></g></g></g></g></svg>