<?xml version="1.0" encoding="UTF-8" standalone="no"?>
<!-- Created with Inkscape (http://www.inkscape.org/) -->

<svg
   xmlns:dc="http://purl.org/dc/elements/1.1/"
   xmlns:cc="http://creativecommons.org/ns#"
   xmlns:rdf="http://www.w3.org/1999/02/22-rdf-syntax-ns#"
   xmlns:svg="http://www.w3.org/2000/svg"
   xmlns="http://www.w3.org/2000/svg"
   xmlns:sodipodi="http://sodipodi.sourceforge.net/DTD/sodipodi-0.dtd"
   xmlns:inkscape="http://www.inkscape.org/namespaces/inkscape"
   width="70mm"
   height="70mm"
   viewBox="0 0 70 70"
   version="1.1"
   id="svg4077"
   sodipodi:docname="tiling-blue.svg"
   inkscape:export-filename="/home/dsbundschuh/wmconfig/wallpaper/tiling-blue.png"
   inkscape:export-xdpi="96"
   inkscape:export-ydpi="96"
   inkscape:version="0.92+devel unknown">
  <defs
     id="defs4071">
    <clipPath
       clipPathUnits="userSpaceOnUse"
       id="clipPath5127">
      <path
         d="m 779.414,69.425 h 200 v 200 h -200 z"
         id="path5125"
         inkscape:connector-curvature="0" />
    </clipPath>
  </defs>
  <sodipodi:namedview
     id="base"
     pagecolor="#ffffff"
     bordercolor="#666666"
     borderopacity="1.0"
     inkscape:pageopacity="1"
     inkscape:pageshadow="2"
     inkscape:zoom="2.8"
     inkscape:cx="145.87061"
     inkscape:cy="150.41745"
     inkscape:document-units="mm"
     inkscape:current-layer="layer1"
     inkscape:document-rotation="0"
     showgrid="false"
     inkscape:window-width="1918"
     inkscape:window-height="1179"
     inkscape:window-x="0"
     inkscape:window-y="19"
     inkscape:window-maximized="0"
     inkscape:pagecheckerboard="false" />
  <metadata
     id="metadata4074">
    <rdf:RDF>
      <cc:Work
         rdf:about="">
        <dc:format>image/svg+xml</dc:format>
        <dc:type
           rdf:resource="http://purl.org/dc/dcmitype/StillImage" />
        <dc:title></dc:title>
      </cc:Work>
    </rdf:RDF>
  </metadata>
  <g
     inkscape:label="Layer 1"
     inkscape:groupmode="layer"
     id="layer1"
     transform="translate(0,-227)">
    <rect
       style="fill:#ffffff;fill-opacity:1;stroke-width:3.34674358"
       id="rect5716"
       x="0.00021"
       y="227.00002"
       width="70"
       height="70" />
    <g
       id="g5129"
       transform="matrix(0.35,0,0,-0.35,39.37521,227.00007)"
       style="fill:#3e8eb7;fill-opacity:1">
      <path
         d="M 0,0 7.5,-7.5 15,0 7.5,7.5 Z m 0,-66.666 7.5,-7.5 7.5,7.5 -7.5,7.5 z M 20,-100 l 7.5,-7.5 7.5,7.5 -7.5,7.5 z m 0,-66.857 7.5,-7.5 7.5,7.5 -7.5,7.5 z m -20,33.524 7.5,-7.5 7.5,7.5 -7.5,7.5 z m -20,33.333 7.5,-7.5 7.5,7.5 -7.5,7.5 z m 0,66.667 7.5,-7.5 7.5,7.5 -7.5,7.5 z m 60,-166.666 7.5,-7.5 7.5,7.5 -7.5,7.5 z m -40,0 7.5,-7.5 7.5,7.5 -7.5,7.5 z m -20,33.142 7.5,-7.5 7.5,7.5 -7.5,7.5 z m 100,-33.142 7.5,-7.5 7.5,7.5 -7.5,7.5 z m 0,133.333 7.5,-7.5 7.5,7.5 -7.5,7.5 z m 0,-66.667 7.5,-7.5 7.5,7.5 -7.5,7.5 z m -20,100 7.5,-7.5 7.5,7.5 -7.5,7.5 z m -20,-33.333 7.5,-7.5 7.5,7.5 -7.5,7.5 z m 0,-66.667 7.5,-7.5 7.5,7.5 -7.5,7.5 z m 20,33.333 7.5,-7.5 7.5,7.5 -7.5,7.5 z M 40,0 47.5,-7.5 55,0 47.5,7.5 Z m 20,-166.857 7.5,-7.5 7.5,7.5 -7.5,7.5 z m -40,133.524 7.5,-7.5 7.5,7.5 -7.5,7.5 z m -120,-133.524 7.5,-7.5 7.5,7.5 -7.5,7.5 z m 0,133.524 7.5,-7.5 7.5,7.5 -7.5,7.5 z m 0,-66.667 7.5,-7.5 7.5,7.5 -7.5,7.5 z m -20,100 7.5,-7.5 7.5,7.5 -7.5,7.5 z m 80,0 7.5,-7.5 7.5,7.5 -7.5,7.5 z M 95,0 87.5,7.5 80,0 87.5,-7.5 Z m -215,-133.333 7.5,-7.5 7.5,7.5 -7.5,7.5 z m 0,-66.666 7.5,-7.5 7.5,7.5 -7.5,7.5 z m 40,0 7.5,-7.5 7.5,7.5 -7.5,7.5 z m -40,133.333 7.5,-7.5 7.5,7.5 -7.5,7.5 z m 80,-133.333 7.5,-7.5 7.5,7.5 -7.5,7.5 z m 0,133.333 7.5,-7.5 7.5,7.5 -7.5,7.5 z m -20,33.333 7.5,-7.5 7.5,7.5 -7.5,7.5 z m 20,-100 7.5,-7.5 7.5,7.5 -7.5,7.5 z m -40,0 7.5,-7.5 7.5,7.5 -7.5,7.5 z m 0,66.667 7.5,-7.5 7.5,7.5 -7.5,7.5 z m 20,-100.191 7.5,-7.5 7.5,7.5 -7.5,7.5 z M -80,0 -72.5,-7.5 -65,0 -72.5,7.5 Z m 20,-100 7.5,-7.5 7.5,7.5 -7.5,7.5 z"
         style="fill:#3e8eb7;fill-opacity:1;fill-rule:nonzero;stroke:none"
         id="path5131"
         inkscape:connector-curvature="0" />
    </g>
    <g
       id="g5133"
       transform="matrix(0.35,0,0,-0.35,7.00021,281.02516)"
       style="fill:#4eb2e5;fill-opacity:1">
      <path
         d="M 0,0 12.5,-12.5 0,-25 -12.5,-12.5 Z m 20,-12.5 -20,20 -20,-20 20,-20 z m 80,21.024 -12.5,12.5 12.5,12.5 12.5,-12.5 z m -20,12.5 20,-20 20,20 -20,20 z m -20,-12.5 -12.5,12.5 12.5,12.5 12.5,-12.5 z m -20,12.5 20,-20 20,20 -20,20 z m 20,-79.166 -12.5,12.5 12.5,12.5 12.5,-12.5 z m -20,12.5 20,-20 20,20 -20,20 z M 20,8.524 7.5,21.024 20,33.524 32.5,21.024 Z m -20,12.5 20,-20 20,20 -20,20 z m -20,-12.5 -12.5,12.5 12.5,12.5 12.5,-12.5 z m -20,12.5 20,-20 20,20 -20,20 z m 180,-79.166 -12.5,12.5 12.5,12.5 12.5,-12.5 z m -20,12.5 20,-20 20,20 -20,20 z M 80,0 92.5,-12.5 80,-25 67.5,-12.5 Z m 20,-12.5 -20,20 -20,-20 20,-20 z m 0,-45.642 -12.5,12.5 12.5,12.5 12.5,-12.5 z m -20,12.5 20,-20 20,20 -20,20 z M 120,0 132.5,-12.5 120,-25 107.5,-12.5 Z m 20,-12.5 -20,20 -20,-20 20,-20 z M 160,0 172.5,-12.5 160,-25 147.5,-12.5 Z m 20,-12.5 -20,20 -20,-20 20,-20 z m 0,-45.642 -12.5,12.5 12.5,12.5 12.5,-12.5 z m -20,12.5 20,-20 20,20 -20,20 z M 40,0 52.5,-12.5 40,-25 27.5,-12.5 Z m 20,-12.5 -20,20 -20,-20 20,-20 z m 0,87.691 -12.5,12.5 12.5,12.5 12.5,-12.5 z m -20,12.5 20,-20 20,20 -20,20 z m -20,-12.5 -12.5,12.5 12.5,12.5 12.5,-12.5 z m -20,12.5 20,-20 20,20 -20,20 z m -20,-12.5 -12.5,12.5 12.5,12.5 12.5,-12.5 z m -20,12.5 20,-20 20,20 -20,20 z m 140,-12.5 -12.5,12.5 12.5,12.5 12.5,-12.5 z m -20,12.5 20,-20 20,20 -20,20 z m 100,-12.5 -12.5,12.5 12.5,12.5 12.5,-12.5 z m -20,12.5 20,-20 20,20 -20,20 z m -20,-12.5 -12.5,12.5 12.5,12.5 12.5,-12.5 z m -20,12.5 20,-20 20,20 -20,20 z m 40,-20.834 12.5,-12.5 -12.5,-12.5 -12.5,12.5 z m 20,-12.5 -20,20 -20,-20 20,-20 z m 0,-45.833 -12.5,12.5 12.5,12.5 12.5,-12.5 z m -20,12.5 20,-20 20,20 -20,20 z M 0,66.857 12.5,54.357 0,41.857 l -12.5,12.5 z m 20,-12.5 -20,20 -20,-20 20,-20 z m 120,-45.833 -12.5,12.5 12.5,12.5 12.5,-12.5 z m -20,12.5 20,-20 20,20 -20,20 z M 40,66.857 52.5,54.357 40,41.857 27.5,54.357 Z m 20,-12.5 -20,20 -20,-20 20,-20 z m 20,12.5 12.5,-12.5 -12.5,-12.5 -12.5,12.5 z m 20,-12.5 -20,20 -20,-20 20,-20 z m 20,12.5 12.5,-12.5 -12.5,-12.5 -12.5,12.5 z m 20,-12.5 -20,20 -20,-20 20,-20 z m -20,54.167 -12.5,12.5 12.5,12.5 12.5,-12.5 z m -20,12.5 20,-20 20,20 -20,20 z m 40,45.833 12.5,-12.5 -12.5,-12.5 -12.5,12.5 z m 20,-12.5 -20,20 -20,-20 20,-20 z M 0,108.524 l -12.5,12.5 12.5,12.5 12.5,-12.5 z m -20,12.5 20,-20 20,20 -20,20 z m 180,-12.5 -12.5,12.5 12.5,12.5 12.5,-12.5 z m -20,12.5 20,-20 20,20 -20,20 z m -40,45.833 12.5,-12.5 -12.5,-12.5 -12.5,12.5 z m 20,-12.5 -20,20 -20,-20 20,-20 z m -40,-45.833 -12.5,12.5 12.5,12.5 12.5,-12.5 z m -20,12.5 20,-20 20,20 -20,20 z m 0,45.833 12.5,-12.5 -12.5,-12.5 -12.5,12.5 z m 20,-12.5 -20,20 -20,-20 20,-20 z m -40,-45.833 -12.5,12.5 12.5,12.5 12.5,-12.5 z m -20,12.5 20,-20 20,20 -20,20 z m 0,45.833 12.5,-12.5 -12.5,-12.5 -12.5,12.5 z m 20,-12.5 -20,20 -20,-20 20,-20 z m -60,12.5 12.5,-12.5 -12.5,-12.5 -12.5,12.5 z m 20,-12.5 -20,20 -20,-20 20,-20 z m -20,-212.499 -12.5,12.5 12.5,12.5 12.5,-12.5 z m -20,12.5 20,-20 20,20 -20,20 z m 60,-12.5 -12.5,12.5 12.5,12.5 12.5,-12.5 z m -20,12.5 20,-20 20,20 -20,20 z m 180,212.499 12.5,-12.5 -12.5,-12.5 -12.5,12.5 z m 20,-12.5 -20,20 -20,-20 20,-20 z"
         style="fill:#4eb2e5;fill-opacity:1;fill-rule:nonzero;stroke:none"
         id="path5135"
         inkscape:connector-curvature="0" />
    </g>
  </g>
</svg>
